<svg width="22" height="19" viewBox="0 0 22 19" fill="none" xmlns="http://www.w3.org/2000/svg">
<path d="M11 6.65C10.1248 6.65 9.28542 6.95027 8.66655 7.48475C8.04768 8.01922 7.7 8.74413 7.7 9.5C7.7 10.2559 8.04768 10.9808 8.66655 11.5153C9.28542 12.0497 10.1248 12.35 11 12.35C11.8752 12.35 12.7146 12.0497 13.3335 11.5153C13.9523 10.9808 14.3 10.2559 14.3 9.5C14.3 8.74413 13.9523 8.01922 13.3335 7.48475C12.7146 6.95027 11.8752 6.65 11 6.65ZM11 4.75C12.4587 4.75 13.8576 5.25044 14.8891 6.14124C15.9205 7.03204 16.5 8.24022 16.5 9.5C16.5 10.7598 15.9205 11.968 14.8891 12.8588C13.8576 13.7496 12.4587 14.25 11 14.25C9.54131 14.25 8.14236 13.7496 7.11091 12.8588C6.07946 11.968 5.5 10.7598 5.5 9.5C5.5 8.24022 6.07946 7.03204 7.11091 6.14124C8.14236 5.25044 9.54131 4.75 11 4.75ZM18.15 4.5125C18.15 4.82744 18.0051 5.12949 17.7473 5.35219C17.4894 5.57489 17.1397 5.7 16.775 5.7C16.4103 5.7 16.0606 5.57489 15.8027 5.35219C15.5449 5.12949 15.4 4.82744 15.4 4.5125C15.4 4.19756 15.5449 3.89551 15.8027 3.67281C16.0606 3.45011 16.4103 3.325 16.775 3.325C17.1397 3.325 17.4894 3.45011 17.7473 3.67281C18.0051 3.89551 18.15 4.19756 18.15 4.5125ZM11 1.9C8.2786 1.9 7.8342 1.90665 6.5681 1.9551C5.7057 1.99025 5.1271 2.09 4.5903 2.2705C4.14108 2.41294 3.73495 2.64125 3.4023 2.93835C3.05801 3.22563 2.79329 3.57635 2.6279 3.96435C2.4189 4.42985 2.3034 4.9286 2.2638 5.67245C2.2066 6.72125 2.2 7.08795 2.2 9.5C2.2 11.8503 2.2077 12.2341 2.2638 13.3275C2.3045 14.0714 2.42 14.5721 2.6279 15.0347C2.8149 15.448 3.0349 15.7453 3.4001 16.0607C3.7708 16.3799 4.1151 16.5708 4.5881 16.7285C5.1315 16.91 5.7101 17.0107 6.5681 17.0449C7.7825 17.0943 8.2071 17.1 11 17.1C13.7214 17.1 14.1658 17.0933 15.4319 17.0449C16.2921 17.0097 16.8718 16.91 17.4086 16.7304C17.8571 16.5873 18.263 16.3595 18.5966 16.0636C18.9673 15.7434 19.1884 15.4461 19.371 15.0375C19.58 14.5692 19.6966 14.0685 19.7362 13.3275C19.7934 12.2787 19.8 11.9121 19.8 9.5C19.8 7.1497 19.7923 6.7659 19.7362 5.67245C19.6955 4.92955 19.58 4.42795 19.371 3.96435C19.2053 3.57674 18.941 3.22614 18.5977 2.93835C18.2652 2.64085 17.8591 2.41221 17.4097 2.26955C16.8707 2.08905 16.2921 1.9893 15.4319 1.9551C14.2175 1.9057 13.7929 1.9 11 1.9ZM11 0C13.9887 0 14.3616 0.00949994 15.5342 0.0569999C16.7057 0.1045 17.5032 0.26315 18.205 0.49875C18.931 0.74005 19.5426 1.06685 20.1542 1.5941C20.7141 2.0691 21.1464 2.64385 21.4225 3.2775C21.6942 3.88265 21.879 4.57235 21.934 5.5841C21.9857 6.5968 22 6.91885 22 9.5C22 12.0812 21.989 12.4032 21.934 13.4159C21.879 14.4276 21.6942 15.1164 21.4225 15.7225C21.1471 16.3569 20.7142 16.9315 20.1542 17.4059C19.6042 17.8885 18.9387 18.2628 18.205 18.5012C17.5043 18.7359 16.7057 18.8955 15.5342 18.943C14.3616 18.9876 13.9887 19 11 19C8.0113 19 7.6384 18.9905 6.4658 18.943C5.2943 18.8955 4.4968 18.7359 3.795 18.5012C3.06056 18.2633 2.39528 17.8894 1.8458 17.4059C1.28635 16.9311 0.853525 16.3566 0.5775 15.7225C0.3047 15.1173 0.121 14.4276 0.0659999 13.4159C0.0142999 12.4032 0 12.0812 0 9.5C0 6.91885 0.0109999 6.5968 0.0659999 5.5841C0.121 4.5714 0.3047 3.8836 0.5775 3.2775C0.85276 2.64307 1.28568 2.06845 1.8458 1.5941C2.39544 1.11077 3.06067 0.736943 3.795 0.49875C4.4968 0.26315 5.2932 0.1045 6.4658 0.0569999C7.6384 0.0123499 8.0113 0 11 0Z" fill="#161A1D"/>
</svg>
