<svg width="29" height="18" viewBox="0 0 29 18" fill="none" xmlns="http://www.w3.org/2000/svg">
<path d="M25.5287 3.36937C25.4185 3.03412 25.1053 2.781 24.7472 2.70337C24.1135 2.565 21.025 2.25 14.5 2.25C7.975 2.25 4.8894 2.565 4.24995 2.70337C3.89615 2.77987 3.58295 3.033 3.4713 3.36937C3.31325 3.84637 2.9 5.8455 2.9 9C2.9 12.1545 3.31325 14.1525 3.4713 14.6318C3.5815 14.9659 3.8947 15.219 4.2514 15.2955C4.8894 15.435 7.975 15.75 14.5 15.75C21.025 15.75 24.1121 15.435 24.7501 15.2966C25.1039 15.2201 25.4171 14.967 25.5287 14.6306C25.6868 14.1536 26.1 12.15 26.1 9C26.1 5.85 25.6868 3.8475 25.5287 3.36937ZM28.3373 2.81025C29 4.815 29 9 29 9C29 9 29 13.185 28.3373 15.1898C27.969 16.2979 26.8917 17.1698 25.5273 17.4645C23.0492 18 14.5 18 14.5 18C14.5 18 5.95515 18 3.47275 17.4645C2.1025 17.1653 1.0266 16.2945 0.66265 15.1898C4.32134e-08 13.185 0 9 0 9C0 9 4.32134e-08 4.815 0.66265 2.81025C1.03095 1.70213 2.1083 0.83025 3.47275 0.5355C5.95515 -2.01166e-07 14.5 0 14.5 0C14.5 0 23.0492 -2.01166e-07 25.5273 0.5355C26.8975 0.83475 27.9734 1.7055 28.3373 2.81025ZM11.6 12.9375V5.0625L20.3 9L11.6 12.9375Z" fill="#161A1D"/>
</svg>
